<svg width="20" height="20" viewBox="0 0 20 20" fill="none" xmlns="http://www.w3.org/2000/svg">
<path d="M11.2656 2.14609C10.7863 2.2411 10.3389 2.45592 9.96511 2.77052C9.59129 3.08512 9.30323 3.48926 9.12778 3.94526L9.12717 3.94604C8.95042 4.40955 8.89581 4.91072 8.96859 5.40142C9.04136 5.89212 9.23907 6.35587 9.54274 6.74813L7.58157 12.1915C7.10057 12.2929 6.65334 12.5152 6.28206 12.8373C5.91078 13.1595 5.6277 13.571 5.45953 14.0329C5.28983 14.4999 5.24307 15.0027 5.32372 15.493C5.40438 15.9833 5.60975 16.4446 5.92011 16.8326L5.92532 16.8385C6.28104 17.268 6.97952 17.1537 7.17407 16.6191L7.71598 15.1321L8.45134 15.3997L7.90965 16.8862C7.71337 17.4255 8.1824 17.958 8.73185 17.8543L8.73505 17.8538C9.2143 17.7588 9.6617 17.544 10.0355 17.2294C10.4093 16.9148 10.6974 16.5107 10.8728 16.0547L10.8735 16.0539C11.0487 15.5954 11.1043 15.0999 11.0349 14.614C10.9655 14.1281 10.7735 13.6679 10.4769 13.2768L12.4524 7.80116C12.9267 7.69574 13.3668 7.4724 13.7318 7.15181C14.0969 6.83122 14.3753 6.42373 14.5411 5.96704C14.7108 5.50004 14.7576 4.99724 14.6769 4.50695C14.5962 4.01665 14.3909 3.55533 14.0805 3.1673L14.0753 3.16139C13.7196 2.73192 13.0211 2.84626 12.8265 3.38079L12.2846 4.86784L11.5489 4.60038L12.091 3.11374C12.2872 2.57447 11.8182 2.04188 11.2688 2.14558L11.2656 2.14609ZM11.1505 3.09719L10.6591 4.44642C10.6259 4.53636 10.6108 4.63199 10.6148 4.72778C10.6188 4.82358 10.6417 4.91763 10.6822 5.00453C10.7227 5.09142 10.78 5.16942 10.8509 5.23403C10.9217 5.29864 11.0046 5.34858 11.0949 5.38095L12.1309 5.75803C12.2208 5.79117 12.3164 5.80618 12.4122 5.80219C12.508 5.7982 12.602 5.77529 12.6889 5.73477C12.7758 5.69426 12.8538 5.63695 12.9184 5.56615C12.983 5.49535 13.033 5.41245 13.0654 5.32225L13.5572 3.97282C13.7232 4.25949 13.8156 4.58284 13.8261 4.91394C13.8366 5.24505 13.7649 5.57359 13.6173 5.87019C13.4698 6.16679 13.251 6.4222 12.9806 6.61357C12.7102 6.80495 12.3966 6.92633 12.0678 6.96685C11.9864 6.97693 11.9093 7.00937 11.8451 7.06058C11.781 7.11179 11.7322 7.17977 11.7044 7.25697L9.55557 13.214C9.52806 13.2902 9.52191 13.3725 9.53779 13.452C9.55367 13.5315 9.59097 13.6051 9.64566 13.6649C9.89777 13.9389 10.0686 14.2777 10.139 14.6433C10.2093 15.0089 10.1765 15.3869 10.044 15.735C9.94064 16.0039 9.78049 16.2473 9.57449 16.4487C9.36849 16.6502 9.12149 16.8048 8.85033 16.9021L9.34153 15.5535C9.37473 15.4636 9.38979 15.3679 9.38583 15.2721C9.38187 15.1763 9.35896 15.0823 9.31845 14.9954C9.27793 14.9085 9.2206 14.8305 9.14976 14.7659C9.07893 14.7013 8.99599 14.6513 8.90575 14.619L7.87034 14.2421C7.78039 14.209 7.68478 14.194 7.589 14.1979C7.49323 14.2019 7.39919 14.2249 7.31231 14.2654C7.22543 14.3059 7.14744 14.3632 7.08282 14.434C7.0182 14.5048 6.96823 14.5877 6.93581 14.6779L6.4442 16.0267C6.27711 15.7381 6.18465 15.4124 6.17521 15.0791C6.16577 14.7457 6.23964 14.4153 6.39012 14.1177C6.54061 13.8201 6.76297 13.5648 7.03704 13.3748C7.31112 13.1849 7.62826 13.0663 7.95973 13.0298C8.04245 13.0208 8.12097 12.9887 8.18636 12.9372C8.25174 12.8858 8.30137 12.817 8.32958 12.7387L10.4659 6.80756C10.4936 6.7305 10.4995 6.6473 10.4828 6.56712C10.4662 6.48695 10.4278 6.41293 10.3718 6.35322C10.1134 6.07922 9.93751 5.73799 9.86415 5.36863C9.79079 4.99927 9.82296 4.61671 9.95697 4.26478C10.0604 3.9958 10.2206 3.75228 10.4267 3.55082C10.6327 3.34936 10.8798 3.19471 11.1511 3.0974" fill="#404040"/>
<path d="M3.62847 6.63184L3.66435 6.59488L3.70023 6.63184L4.20271 7.14955L4.23651 7.18437L4.20271 7.2192L1.90813 9.58333L4.20271 11.9475L4.23651 11.9823L4.20271 12.0171L3.70023 12.5348L3.66435 12.5718L3.62847 12.5348L0.797617 9.61816L0.763818 9.58333L0.797617 9.54851L3.62847 6.63184Z" fill="#404040" stroke="#404040" stroke-width="0.1"/>
<path d="M16.3715 12.5348L16.3356 12.5718L16.2998 12.5348L15.7973 12.0171L15.7635 11.9823L15.7973 11.9475L18.0919 9.58335L15.7973 7.21922L15.7635 7.1844L15.7973 7.14957L16.2998 6.63186L16.3356 6.5949L16.3715 6.63186L19.2024 9.54853L19.2362 9.58335L19.2024 9.61818L16.3715 12.5348Z" fill="#404040" stroke="#404040" stroke-width="0.1"/>
</svg>
