<svg width="20" height="20" viewBox="0 0 20 20" fill="none" xmlns="http://www.w3.org/2000/svg">
<mask id="mask0_318_1112" style="mask-type:alpha" maskUnits="userSpaceOnUse" x="0" y="0" width="20" height="20">
<rect width="20" height="20" fill="#D9D9D9"/>
</mask>
<g mask="url(#mask0_318_1112)">
<path d="M11.698 10.3732L11.6536 10.4414L11.7114 10.4987L13.1655 11.9428L12.5116 12.5626L11.0895 11.116L11.034 11.0595L10.9663 11.1006C10.7548 11.229 10.5415 11.3246 10.3262 11.3881C10.112 11.4514 9.88217 11.4833 9.63636 11.4833C8.97183 11.4833 8.39971 11.25 7.91505 10.7803C7.43176 10.3119 7.19091 9.7391 7.19091 9.05556C7.19091 8.37201 7.43176 7.79921 7.91505 7.33084C8.39971 6.86114 8.97183 6.62778 9.63636 6.62778C10.3009 6.62778 10.873 6.86114 11.3577 7.33084C11.841 7.79921 12.0818 8.37201 12.0818 9.05556C12.0818 9.29944 12.0497 9.53072 11.9858 9.74979C11.922 9.96884 11.8261 10.1766 11.698 10.3732ZM4.08182 13.3889V13.4889H4.18182H15.8182H15.9182V13.3889V5.44444V5.34444H15.8182H4.18182H4.08182V5.44444V13.3889ZM8.53863 10.1467C8.84213 10.448 9.20986 10.6 9.63636 10.6C10.0629 10.6 10.4306 10.448 10.7341 10.1467C11.0376 9.84523 11.1909 9.47974 11.1909 9.05556C11.1909 8.63068 11.0341 8.26496 10.7243 7.96372C10.4156 7.66363 10.0516 7.51111 9.63636 7.51111C9.20986 7.51111 8.84213 7.66306 8.53863 7.96446C8.2351 8.26588 8.08182 8.63137 8.08182 9.05556C8.08182 9.47974 8.2351 9.84523 8.53863 10.1467ZM4.18182 14.7333C3.80833 14.7333 3.4912 14.6024 3.22501 14.3381C2.95884 14.0738 2.82727 13.7592 2.82727 13.3889V5.44444C2.82727 5.07418 2.95884 4.75958 3.22501 4.49526C3.4912 4.23092 3.80833 4.1 4.18182 4.1H15.8182C16.1917 4.1 16.5088 4.23092 16.775 4.49526C17.0412 4.75958 17.1727 5.07418 17.1727 5.44444V13.3889C17.1727 13.7592 17.0412 14.0738 16.775 14.3381C16.5088 14.6024 16.1917 14.7333 15.8182 14.7333H4.18182ZM2.1 16.9V15.6556H17.9V16.9H2.1Z" fill="#747474" stroke="white" stroke-width="0.2"/>
</g>
</svg>
