<svg width="20" height="20" viewBox="0 0 20 20" fill="none" xmlns="http://www.w3.org/2000/svg">
<path d="M7.75421 12.8457H7.09057C5.76625 12.8457 4.49662 12.3318 3.56087 11.4177C2.62521 10.5036 2.1 9.26445 2.1 7.97285C2.1 6.68126 2.62521 5.44207 3.56087 4.52805C4.49662 3.61394 5.76625 3.1 7.09057 3.1H12.9084H12.9084C13.7508 3.09983 14.5795 3.30789 15.3172 3.70466C16.0549 4.10142 16.6776 4.67393 17.1275 5.36867C17.5774 6.0634 17.8399 6.85784 17.8909 7.67804C17.9376 8.43061 17.8048 9.18261 17.504 9.87516C17.2611 9.4237 16.9499 9.01041 16.5806 8.64937C16.6797 8.13537 16.6648 7.60632 16.5365 7.09808C16.4037 6.57192 16.1528 6.08137 15.8021 5.66193C15.4515 5.24249 15.0099 4.90467 14.5094 4.67279C14.009 4.4409 13.4621 4.32071 12.9084 4.32081C12.9084 4.32081 12.9084 4.32081 12.9084 4.32081H7.09057C6.10044 4.32081 5.1504 4.70503 4.44957 5.38965C3.74866 6.07435 3.35445 7.00351 3.35445 7.97285C3.35445 8.9422 3.74866 9.87136 4.44957 10.5561C5.1504 11.2407 6.10044 11.6249 7.09057 11.6249H7.75421C7.70392 12.0303 7.70392 12.4403 7.75421 12.8457ZM15.8595 14.1379L15.8127 14.207L15.8725 14.2654L17.6428 15.9955L16.7576 16.8602L14.9832 15.1276L14.9261 15.0718L14.8591 15.1151C14.326 15.4593 13.7073 15.6561 13.0686 15.6844C12.4299 15.7126 11.7954 15.5713 11.2325 15.2756C10.6697 14.9799 10.1998 14.5409 9.87231 14.0056C9.54489 13.4703 9.37215 12.8585 9.37225 12.2353C9.37238 11.6975 9.50125 11.167 9.74868 10.6863C9.99611 10.2056 10.3553 9.78779 10.7978 9.46646C11.2402 9.14513 11.7536 8.9292 12.297 8.83609C12.8405 8.74298 13.3986 8.77529 13.9269 8.93042C14.4552 9.08554 14.9388 9.35914 15.3393 9.72917C15.7397 10.0992 16.0458 10.5554 16.2334 11.0612C16.4209 11.567 16.4848 12.1086 16.4199 12.6427C16.355 13.1768 16.1632 13.6888 15.8595 14.1379ZM12.9084 10.0041C12.304 10.0041 11.7239 10.2386 11.2958 10.6568C10.8677 11.075 10.6267 11.6428 10.6267 12.2353C10.6267 12.8278 10.8677 13.3956 11.2958 13.8138C11.7239 14.232 12.304 14.4665 12.9084 14.4665C13.5128 14.4665 14.0929 14.232 14.5209 13.8138C14.9491 13.3956 15.19 12.8278 15.19 12.2353C15.19 11.6428 14.9491 11.075 14.5209 10.6568C14.0929 10.2386 13.5128 10.0041 12.9084 10.0041Z" fill="#747474" stroke="white" stroke-width="0.2"/>
</svg>
