<svg width="20" height="20" viewBox="0 0 20 20" fill="none" xmlns="http://www.w3.org/2000/svg">
<path d="M3.57778 7.33333V7.53333H3.77778H7.33333H7.53333V7.33333V3.77778V3.57778H7.33333H3.77778H3.57778V3.77778V7.33333ZM12.4667 7.33333V7.53333H12.6667H16.2222H16.4222V7.33333V3.77778V3.57778H16.2222H12.6667H12.4667V3.77778V7.33333ZM12.4667 16.2222V16.4222H12.6667H16.2222H16.4222V16.2222V12.6667V12.4667H16.2222H12.6667H12.4667V12.6667V16.2222ZM3.57778 16.2222V16.4222H3.77778H7.33333H7.53333V16.2222V12.6667V12.4667H7.33333H3.77778H3.57778V12.6667V16.2222ZM2.2 8.91111V2.2H8.91111V8.91111H2.2ZM2.2 17.8V11.0889H8.91111V17.8H2.2ZM11.0889 8.91111V2.2H17.8V8.91111H11.0889ZM11.0889 17.8V11.0889H17.8V17.8H11.0889Z" fill="#747474" stroke="white" stroke-width="0.4"/>
</svg>
